<svg width="126" height="50" viewBox="0 0 126 50" fill="none" xmlns="http://www.w3.org/2000/svg">
<path d="M0 27.7256C2.15979 32.7939 7.18713 36.3493 13.0461 36.3493C10.8863 31.2788 5.85896 27.7256 0 27.7256Z" fill="#12B36A"/>
<path d="M13.0472 36.3492C17.3512 36.3492 21.0571 33.7913 22.7292 30.1143C18.4262 30.1143 14.7204 32.6722 13.0472 36.3492Z" fill="#12B36A"/>
<path fill-rule="evenodd" clip-rule="evenodd" d="M13.0472 29.2617C18.9183 29.2617 23.678 24.5031 23.678 18.6308C23.678 12.7608 18.9183 8 13.0472 8C7.17493 8 2.41632 12.7608 2.41632 18.6308C2.41632 24.5031 7.17493 29.2617 13.0472 29.2617ZM13.0472 23.947C15.9822 23.947 18.362 21.5671 18.362 18.631C18.362 15.6949 15.9822 13.3161 13.0472 13.3161C10.111 13.3161 7.73115 15.6949 7.73115 18.631C7.73115 21.5671 10.111 23.947 13.0472 23.947Z" fill="#FEBE10"/>
<path d="M81.4449 18.6315H85.8916V35.8678H81.4449V29.1551H73.6805V35.8678H69.2337V18.6315H73.6805V24.9837H81.4449V18.6315ZM87.9861 22.9069H93.5222V35.8678H97.9689V22.9069H103.438V18.6315H87.9861V22.9069ZM125 32.1188V35.7826C124.242 36.162 123.295 36.351 122.189 36.351C119.879 36.351 118.716 35.3458 118.25 33.7268L118.176 33.8352C116.831 35.5239 114.97 36.351 112.557 36.351C110.246 36.351 108.281 35.4896 106.627 33.7312C105.007 31.9729 104.18 29.8009 104.18 27.2497C104.18 24.7006 105.007 22.5629 106.627 20.8046C108.281 19.0473 110.246 18.1494 112.557 18.1494C114.863 18.1494 116.665 18.908 117.994 20.4529V18.6326H122.441V30.825C122.441 31.8667 122.915 32.4031 123.863 32.4031C124.306 32.402 124.685 32.3079 125 32.1188ZM118.176 27.2485C118.176 25.8374 117.728 24.6652 116.797 23.7683C115.901 22.8383 114.763 22.3893 113.384 22.3893C112.005 22.3893 110.868 22.8372 109.971 23.7683C109.075 24.6652 108.627 25.8374 108.627 27.2485C108.627 28.663 109.075 29.8352 109.971 30.7664C110.868 31.6621 112.005 32.11 113.384 32.11C114.763 32.11 115.901 31.6621 116.797 30.7664C117.728 29.8352 118.176 28.663 118.176 27.2485ZM32.5992 18.6315L32.4665 25.1076C32.4355 27.7296 32.3404 29.0246 31.9611 30.5076C31.6138 31.9297 30.9503 32.3312 29.9097 32.3312C29.5613 32.3312 29.2461 32.2991 28.9929 32.204V35.8678C29.3401 36.0569 29.9096 36.1509 30.6672 36.1509C33.7935 36.0569 35.3097 34.5816 36.0683 31.9286C36.6047 30.0332 36.6998 28.58 36.7949 26.4015L36.8944 22.9057H42.4161V35.8667H46.8628V18.6304H32.5992V18.6315ZM54.0157 28.4131C54.4945 31.3547 56.8268 32.3179 59.1934 32.3179C60.7615 32.3179 62.4049 31.7052 63.4157 30.7885L66.1582 33.5477C64.5204 35.3613 62.2401 36.351 59.1237 36.351C54.761 36.351 49.4981 33.7755 49.4981 27.2497C49.4981 20.725 54.5664 18.1494 58.8705 18.1494C64.3147 18.1494 66.5674 20.7073 66.5674 23.5748C66.5685 28.2627 60.61 30.428 54.0157 28.4131ZM61.7402 24.0824C61.7402 22.7454 60.4176 22.1482 58.9357 22.1482C56.672 22.1482 54.7102 23.1037 54.1141 25.5632C58.7267 26.8958 61.7402 25.9016 61.7402 24.0824Z" fill="white"/>
</svg>
